<mxfile host="Electron" agent="Mozilla/5.0 (X11; Linux x86_64) AppleWebKit/537.36 (KHTML, like Gecko) draw.io/25.0.1 Chrome/128.0.6613.186 Electron/32.2.6 Safari/537.36" version="25.0.1">
  <diagram id="R2lEEEUBdFMjLlhIrx00" name="Page-1">
    <mxGraphModel dx="1120" dy="547" grid="1" gridSize="10" guides="1" tooltips="1" connect="1" arrows="1" fold="1" page="1" pageScale="1" pageWidth="850" pageHeight="1100" math="0" shadow="0" extFonts="Permanent Marker^https://fonts.googleapis.com/css?family=Permanent+Marker">
      <root>
        <mxCell id="0" />
        <mxCell id="1" parent="0" />
        <mxCell id="lroUtFzJ-umjv0hhmqaw-1" value="&lt;font style=&quot;font-size: 24px;&quot;&gt;TaskQuest Cloud Database UML Entity Relationship Diagram&lt;/font&gt;" style="text;html=1;align=center;verticalAlign=middle;whiteSpace=wrap;rounded=0;" parent="1" vertex="1">
          <mxGeometry x="80" y="20" width="690" height="30" as="geometry" />
        </mxCell>
        <mxCell id="j8alAkKeFbqd9Mwpdzcv-27" value="User" style="shape=table;startSize=30;container=1;collapsible=1;childLayout=tableLayout;fixedRows=1;rowLines=0;fontStyle=1;align=center;resizeLast=1;html=1;" vertex="1" parent="1">
          <mxGeometry x="10" y="109" width="290" height="180" as="geometry" />
        </mxCell>
        <mxCell id="j8alAkKeFbqd9Mwpdzcv-28" value="" style="shape=tableRow;horizontal=0;startSize=0;swimlaneHead=0;swimlaneBody=0;fillColor=none;collapsible=0;dropTarget=0;points=[[0,0.5],[1,0.5]];portConstraint=eastwest;top=0;left=0;right=0;bottom=1;" vertex="1" parent="j8alAkKeFbqd9Mwpdzcv-27">
          <mxGeometry y="30" width="290" height="30" as="geometry" />
        </mxCell>
        <mxCell id="j8alAkKeFbqd9Mwpdzcv-29" value="PK" style="shape=partialRectangle;connectable=0;fillColor=none;top=0;left=0;bottom=0;right=0;fontStyle=1;overflow=hidden;whiteSpace=wrap;html=1;" vertex="1" parent="j8alAkKeFbqd9Mwpdzcv-28">
          <mxGeometry width="30" height="30" as="geometry">
            <mxRectangle width="30" height="30" as="alternateBounds" />
          </mxGeometry>
        </mxCell>
        <mxCell id="j8alAkKeFbqd9Mwpdzcv-30" value="uuid NOT NULL" style="shape=partialRectangle;connectable=0;fillColor=none;top=0;left=0;bottom=0;right=0;align=left;spacingLeft=6;fontStyle=5;overflow=hidden;whiteSpace=wrap;html=1;" vertex="1" parent="j8alAkKeFbqd9Mwpdzcv-28">
          <mxGeometry x="30" width="260" height="30" as="geometry">
            <mxRectangle width="260" height="30" as="alternateBounds" />
          </mxGeometry>
        </mxCell>
        <mxCell id="j8alAkKeFbqd9Mwpdzcv-31" value="" style="shape=tableRow;horizontal=0;startSize=0;swimlaneHead=0;swimlaneBody=0;fillColor=none;collapsible=0;dropTarget=0;points=[[0,0.5],[1,0.5]];portConstraint=eastwest;top=0;left=0;right=0;bottom=0;" vertex="1" parent="j8alAkKeFbqd9Mwpdzcv-27">
          <mxGeometry y="60" width="290" height="30" as="geometry" />
        </mxCell>
        <mxCell id="j8alAkKeFbqd9Mwpdzcv-32" value="" style="shape=partialRectangle;connectable=0;fillColor=none;top=0;left=0;bottom=0;right=0;editable=1;overflow=hidden;whiteSpace=wrap;html=1;" vertex="1" parent="j8alAkKeFbqd9Mwpdzcv-31">
          <mxGeometry width="30" height="30" as="geometry">
            <mxRectangle width="30" height="30" as="alternateBounds" />
          </mxGeometry>
        </mxCell>
        <mxCell id="j8alAkKeFbqd9Mwpdzcv-33" value="username varchar(255), NOT NULL, UNIQUE" style="shape=partialRectangle;connectable=0;fillColor=none;top=0;left=0;bottom=0;right=0;align=left;spacingLeft=6;overflow=hidden;whiteSpace=wrap;html=1;" vertex="1" parent="j8alAkKeFbqd9Mwpdzcv-31">
          <mxGeometry x="30" width="260" height="30" as="geometry">
            <mxRectangle width="260" height="30" as="alternateBounds" />
          </mxGeometry>
        </mxCell>
        <mxCell id="j8alAkKeFbqd9Mwpdzcv-34" value="" style="shape=tableRow;horizontal=0;startSize=0;swimlaneHead=0;swimlaneBody=0;fillColor=none;collapsible=0;dropTarget=0;points=[[0,0.5],[1,0.5]];portConstraint=eastwest;top=0;left=0;right=0;bottom=0;" vertex="1" parent="j8alAkKeFbqd9Mwpdzcv-27">
          <mxGeometry y="90" width="290" height="30" as="geometry" />
        </mxCell>
        <mxCell id="j8alAkKeFbqd9Mwpdzcv-35" value="" style="shape=partialRectangle;connectable=0;fillColor=none;top=0;left=0;bottom=0;right=0;editable=1;overflow=hidden;whiteSpace=wrap;html=1;" vertex="1" parent="j8alAkKeFbqd9Mwpdzcv-34">
          <mxGeometry width="30" height="30" as="geometry">
            <mxRectangle width="30" height="30" as="alternateBounds" />
          </mxGeometry>
        </mxCell>
        <mxCell id="j8alAkKeFbqd9Mwpdzcv-36" value="password varchar(255), NOT NULL" style="shape=partialRectangle;connectable=0;fillColor=none;top=0;left=0;bottom=0;right=0;align=left;spacingLeft=6;overflow=hidden;whiteSpace=wrap;html=1;" vertex="1" parent="j8alAkKeFbqd9Mwpdzcv-34">
          <mxGeometry x="30" width="260" height="30" as="geometry">
            <mxRectangle width="260" height="30" as="alternateBounds" />
          </mxGeometry>
        </mxCell>
        <mxCell id="j8alAkKeFbqd9Mwpdzcv-37" value="" style="shape=tableRow;horizontal=0;startSize=0;swimlaneHead=0;swimlaneBody=0;fillColor=none;collapsible=0;dropTarget=0;points=[[0,0.5],[1,0.5]];portConstraint=eastwest;top=0;left=0;right=0;bottom=0;" vertex="1" parent="j8alAkKeFbqd9Mwpdzcv-27">
          <mxGeometry y="120" width="290" height="30" as="geometry" />
        </mxCell>
        <mxCell id="j8alAkKeFbqd9Mwpdzcv-38" value="" style="shape=partialRectangle;connectable=0;fillColor=none;top=0;left=0;bottom=0;right=0;editable=1;overflow=hidden;whiteSpace=wrap;html=1;" vertex="1" parent="j8alAkKeFbqd9Mwpdzcv-37">
          <mxGeometry width="30" height="30" as="geometry">
            <mxRectangle width="30" height="30" as="alternateBounds" />
          </mxGeometry>
        </mxCell>
        <mxCell id="j8alAkKeFbqd9Mwpdzcv-39" value="email varchar(255), NOT NULL, UNIQUE" style="shape=partialRectangle;connectable=0;fillColor=none;top=0;left=0;bottom=0;right=0;align=left;spacingLeft=6;overflow=hidden;whiteSpace=wrap;html=1;" vertex="1" parent="j8alAkKeFbqd9Mwpdzcv-37">
          <mxGeometry x="30" width="260" height="30" as="geometry">
            <mxRectangle width="260" height="30" as="alternateBounds" />
          </mxGeometry>
        </mxCell>
        <mxCell id="j8alAkKeFbqd9Mwpdzcv-91" value="" style="shape=tableRow;horizontal=0;startSize=0;swimlaneHead=0;swimlaneBody=0;fillColor=none;collapsible=0;dropTarget=0;points=[[0,0.5],[1,0.5]];portConstraint=eastwest;top=0;left=0;right=0;bottom=0;" vertex="1" parent="j8alAkKeFbqd9Mwpdzcv-27">
          <mxGeometry y="150" width="290" height="30" as="geometry" />
        </mxCell>
        <mxCell id="j8alAkKeFbqd9Mwpdzcv-92" value="" style="shape=partialRectangle;connectable=0;fillColor=none;top=0;left=0;bottom=0;right=0;editable=1;overflow=hidden;" vertex="1" parent="j8alAkKeFbqd9Mwpdzcv-91">
          <mxGeometry width="30" height="30" as="geometry">
            <mxRectangle width="30" height="30" as="alternateBounds" />
          </mxGeometry>
        </mxCell>
        <mxCell id="j8alAkKeFbqd9Mwpdzcv-93" value="coins integer" style="shape=partialRectangle;connectable=0;fillColor=none;top=0;left=0;bottom=0;right=0;align=left;spacingLeft=6;overflow=hidden;" vertex="1" parent="j8alAkKeFbqd9Mwpdzcv-91">
          <mxGeometry x="30" width="260" height="30" as="geometry">
            <mxRectangle width="260" height="30" as="alternateBounds" />
          </mxGeometry>
        </mxCell>
        <mxCell id="j8alAkKeFbqd9Mwpdzcv-44" value="Project" style="shape=table;startSize=30;container=1;collapsible=1;childLayout=tableLayout;fixedRows=1;rowLines=0;fontStyle=1;align=center;resizeLast=1;html=1;" vertex="1" parent="1">
          <mxGeometry x="360" y="119" width="180" height="120" as="geometry" />
        </mxCell>
        <mxCell id="j8alAkKeFbqd9Mwpdzcv-45" value="" style="shape=tableRow;horizontal=0;startSize=0;swimlaneHead=0;swimlaneBody=0;fillColor=none;collapsible=0;dropTarget=0;points=[[0,0.5],[1,0.5]];portConstraint=eastwest;top=0;left=0;right=0;bottom=1;" vertex="1" parent="j8alAkKeFbqd9Mwpdzcv-44">
          <mxGeometry y="30" width="180" height="30" as="geometry" />
        </mxCell>
        <mxCell id="j8alAkKeFbqd9Mwpdzcv-46" value="PK" style="shape=partialRectangle;connectable=0;fillColor=none;top=0;left=0;bottom=0;right=0;fontStyle=1;overflow=hidden;whiteSpace=wrap;html=1;" vertex="1" parent="j8alAkKeFbqd9Mwpdzcv-45">
          <mxGeometry width="30" height="30" as="geometry">
            <mxRectangle width="30" height="30" as="alternateBounds" />
          </mxGeometry>
        </mxCell>
        <mxCell id="j8alAkKeFbqd9Mwpdzcv-47" value="uuid NOT NULL" style="shape=partialRectangle;connectable=0;fillColor=none;top=0;left=0;bottom=0;right=0;align=left;spacingLeft=6;fontStyle=5;overflow=hidden;whiteSpace=wrap;html=1;" vertex="1" parent="j8alAkKeFbqd9Mwpdzcv-45">
          <mxGeometry x="30" width="150" height="30" as="geometry">
            <mxRectangle width="150" height="30" as="alternateBounds" />
          </mxGeometry>
        </mxCell>
        <mxCell id="j8alAkKeFbqd9Mwpdzcv-48" value="" style="shape=tableRow;horizontal=0;startSize=0;swimlaneHead=0;swimlaneBody=0;fillColor=none;collapsible=0;dropTarget=0;points=[[0,0.5],[1,0.5]];portConstraint=eastwest;top=0;left=0;right=0;bottom=0;" vertex="1" parent="j8alAkKeFbqd9Mwpdzcv-44">
          <mxGeometry y="60" width="180" height="30" as="geometry" />
        </mxCell>
        <mxCell id="j8alAkKeFbqd9Mwpdzcv-49" value="FK" style="shape=partialRectangle;connectable=0;fillColor=none;top=0;left=0;bottom=0;right=0;editable=1;overflow=hidden;whiteSpace=wrap;html=1;" vertex="1" parent="j8alAkKeFbqd9Mwpdzcv-48">
          <mxGeometry width="30" height="30" as="geometry">
            <mxRectangle width="30" height="30" as="alternateBounds" />
          </mxGeometry>
        </mxCell>
        <mxCell id="j8alAkKeFbqd9Mwpdzcv-50" value="user_id" style="shape=partialRectangle;connectable=0;fillColor=none;top=0;left=0;bottom=0;right=0;align=left;spacingLeft=6;overflow=hidden;whiteSpace=wrap;html=1;" vertex="1" parent="j8alAkKeFbqd9Mwpdzcv-48">
          <mxGeometry x="30" width="150" height="30" as="geometry">
            <mxRectangle width="150" height="30" as="alternateBounds" />
          </mxGeometry>
        </mxCell>
        <mxCell id="j8alAkKeFbqd9Mwpdzcv-51" value="" style="shape=tableRow;horizontal=0;startSize=0;swimlaneHead=0;swimlaneBody=0;fillColor=none;collapsible=0;dropTarget=0;points=[[0,0.5],[1,0.5]];portConstraint=eastwest;top=0;left=0;right=0;bottom=0;" vertex="1" parent="j8alAkKeFbqd9Mwpdzcv-44">
          <mxGeometry y="90" width="180" height="30" as="geometry" />
        </mxCell>
        <mxCell id="j8alAkKeFbqd9Mwpdzcv-52" value="" style="shape=partialRectangle;connectable=0;fillColor=none;top=0;left=0;bottom=0;right=0;editable=1;overflow=hidden;whiteSpace=wrap;html=1;" vertex="1" parent="j8alAkKeFbqd9Mwpdzcv-51">
          <mxGeometry width="30" height="30" as="geometry">
            <mxRectangle width="30" height="30" as="alternateBounds" />
          </mxGeometry>
        </mxCell>
        <mxCell id="j8alAkKeFbqd9Mwpdzcv-53" value="name varchar(255)" style="shape=partialRectangle;connectable=0;fillColor=none;top=0;left=0;bottom=0;right=0;align=left;spacingLeft=6;overflow=hidden;whiteSpace=wrap;html=1;" vertex="1" parent="j8alAkKeFbqd9Mwpdzcv-51">
          <mxGeometry x="30" width="150" height="30" as="geometry">
            <mxRectangle width="150" height="30" as="alternateBounds" />
          </mxGeometry>
        </mxCell>
        <mxCell id="j8alAkKeFbqd9Mwpdzcv-57" value="" style="edgeStyle=entityRelationEdgeStyle;fontSize=12;html=1;endArrow=ERzeroToMany;startArrow=ERmandOne;rounded=0;exitX=1;exitY=0.5;exitDx=0;exitDy=0;entryX=0;entryY=0.5;entryDx=0;entryDy=0;" edge="1" parent="1" source="j8alAkKeFbqd9Mwpdzcv-28" target="j8alAkKeFbqd9Mwpdzcv-44">
          <mxGeometry width="100" height="100" relative="1" as="geometry">
            <mxPoint x="470" y="139" as="sourcePoint" />
            <mxPoint x="570" y="39" as="targetPoint" />
          </mxGeometry>
        </mxCell>
        <mxCell id="j8alAkKeFbqd9Mwpdzcv-58" value="ToDo" style="shape=table;startSize=30;container=1;collapsible=1;childLayout=tableLayout;fixedRows=1;rowLines=0;fontStyle=1;align=center;resizeLast=1;html=1;" vertex="1" parent="1">
          <mxGeometry x="600" y="74" width="245" height="240" as="geometry" />
        </mxCell>
        <mxCell id="j8alAkKeFbqd9Mwpdzcv-59" value="" style="shape=tableRow;horizontal=0;startSize=0;swimlaneHead=0;swimlaneBody=0;fillColor=none;collapsible=0;dropTarget=0;points=[[0,0.5],[1,0.5]];portConstraint=eastwest;top=0;left=0;right=0;bottom=1;" vertex="1" parent="j8alAkKeFbqd9Mwpdzcv-58">
          <mxGeometry y="30" width="245" height="30" as="geometry" />
        </mxCell>
        <mxCell id="j8alAkKeFbqd9Mwpdzcv-60" value="PK" style="shape=partialRectangle;connectable=0;fillColor=none;top=0;left=0;bottom=0;right=0;fontStyle=1;overflow=hidden;whiteSpace=wrap;html=1;" vertex="1" parent="j8alAkKeFbqd9Mwpdzcv-59">
          <mxGeometry width="30" height="30" as="geometry">
            <mxRectangle width="30" height="30" as="alternateBounds" />
          </mxGeometry>
        </mxCell>
        <mxCell id="j8alAkKeFbqd9Mwpdzcv-61" value="uuid NOT NULL" style="shape=partialRectangle;connectable=0;fillColor=none;top=0;left=0;bottom=0;right=0;align=left;spacingLeft=6;fontStyle=5;overflow=hidden;whiteSpace=wrap;html=1;" vertex="1" parent="j8alAkKeFbqd9Mwpdzcv-59">
          <mxGeometry x="30" width="215" height="30" as="geometry">
            <mxRectangle width="215" height="30" as="alternateBounds" />
          </mxGeometry>
        </mxCell>
        <mxCell id="j8alAkKeFbqd9Mwpdzcv-62" value="" style="shape=tableRow;horizontal=0;startSize=0;swimlaneHead=0;swimlaneBody=0;fillColor=none;collapsible=0;dropTarget=0;points=[[0,0.5],[1,0.5]];portConstraint=eastwest;top=0;left=0;right=0;bottom=0;" vertex="1" parent="j8alAkKeFbqd9Mwpdzcv-58">
          <mxGeometry y="60" width="245" height="30" as="geometry" />
        </mxCell>
        <mxCell id="j8alAkKeFbqd9Mwpdzcv-63" value="FK" style="shape=partialRectangle;connectable=0;fillColor=none;top=0;left=0;bottom=0;right=0;editable=1;overflow=hidden;whiteSpace=wrap;html=1;" vertex="1" parent="j8alAkKeFbqd9Mwpdzcv-62">
          <mxGeometry width="30" height="30" as="geometry">
            <mxRectangle width="30" height="30" as="alternateBounds" />
          </mxGeometry>
        </mxCell>
        <mxCell id="j8alAkKeFbqd9Mwpdzcv-64" value="project_id" style="shape=partialRectangle;connectable=0;fillColor=none;top=0;left=0;bottom=0;right=0;align=left;spacingLeft=6;overflow=hidden;whiteSpace=wrap;html=1;" vertex="1" parent="j8alAkKeFbqd9Mwpdzcv-62">
          <mxGeometry x="30" width="215" height="30" as="geometry">
            <mxRectangle width="215" height="30" as="alternateBounds" />
          </mxGeometry>
        </mxCell>
        <mxCell id="j8alAkKeFbqd9Mwpdzcv-65" value="" style="shape=tableRow;horizontal=0;startSize=0;swimlaneHead=0;swimlaneBody=0;fillColor=none;collapsible=0;dropTarget=0;points=[[0,0.5],[1,0.5]];portConstraint=eastwest;top=0;left=0;right=0;bottom=0;" vertex="1" parent="j8alAkKeFbqd9Mwpdzcv-58">
          <mxGeometry y="90" width="245" height="30" as="geometry" />
        </mxCell>
        <mxCell id="j8alAkKeFbqd9Mwpdzcv-66" value="" style="shape=partialRectangle;connectable=0;fillColor=none;top=0;left=0;bottom=0;right=0;editable=1;overflow=hidden;whiteSpace=wrap;html=1;" vertex="1" parent="j8alAkKeFbqd9Mwpdzcv-65">
          <mxGeometry width="30" height="30" as="geometry">
            <mxRectangle width="30" height="30" as="alternateBounds" />
          </mxGeometry>
        </mxCell>
        <mxCell id="j8alAkKeFbqd9Mwpdzcv-67" value="title varchar(255)" style="shape=partialRectangle;connectable=0;fillColor=none;top=0;left=0;bottom=0;right=0;align=left;spacingLeft=6;overflow=hidden;whiteSpace=wrap;html=1;" vertex="1" parent="j8alAkKeFbqd9Mwpdzcv-65">
          <mxGeometry x="30" width="215" height="30" as="geometry">
            <mxRectangle width="215" height="30" as="alternateBounds" />
          </mxGeometry>
        </mxCell>
        <mxCell id="j8alAkKeFbqd9Mwpdzcv-68" value="" style="shape=tableRow;horizontal=0;startSize=0;swimlaneHead=0;swimlaneBody=0;fillColor=none;collapsible=0;dropTarget=0;points=[[0,0.5],[1,0.5]];portConstraint=eastwest;top=0;left=0;right=0;bottom=0;" vertex="1" parent="j8alAkKeFbqd9Mwpdzcv-58">
          <mxGeometry y="120" width="245" height="30" as="geometry" />
        </mxCell>
        <mxCell id="j8alAkKeFbqd9Mwpdzcv-69" value="" style="shape=partialRectangle;connectable=0;fillColor=none;top=0;left=0;bottom=0;right=0;editable=1;overflow=hidden;whiteSpace=wrap;html=1;" vertex="1" parent="j8alAkKeFbqd9Mwpdzcv-68">
          <mxGeometry width="30" height="30" as="geometry">
            <mxRectangle width="30" height="30" as="alternateBounds" />
          </mxGeometry>
        </mxCell>
        <mxCell id="j8alAkKeFbqd9Mwpdzcv-70" value="description varchar(255)" style="shape=partialRectangle;connectable=0;fillColor=none;top=0;left=0;bottom=0;right=0;align=left;spacingLeft=6;overflow=hidden;whiteSpace=wrap;html=1;" vertex="1" parent="j8alAkKeFbqd9Mwpdzcv-68">
          <mxGeometry x="30" width="215" height="30" as="geometry">
            <mxRectangle width="215" height="30" as="alternateBounds" />
          </mxGeometry>
        </mxCell>
        <mxCell id="j8alAkKeFbqd9Mwpdzcv-72" value="" style="shape=tableRow;horizontal=0;startSize=0;swimlaneHead=0;swimlaneBody=0;fillColor=none;collapsible=0;dropTarget=0;points=[[0,0.5],[1,0.5]];portConstraint=eastwest;top=0;left=0;right=0;bottom=0;" vertex="1" parent="j8alAkKeFbqd9Mwpdzcv-58">
          <mxGeometry y="150" width="245" height="30" as="geometry" />
        </mxCell>
        <mxCell id="j8alAkKeFbqd9Mwpdzcv-73" value="" style="shape=partialRectangle;connectable=0;fillColor=none;top=0;left=0;bottom=0;right=0;editable=1;overflow=hidden;" vertex="1" parent="j8alAkKeFbqd9Mwpdzcv-72">
          <mxGeometry width="30" height="30" as="geometry">
            <mxRectangle width="30" height="30" as="alternateBounds" />
          </mxGeometry>
        </mxCell>
        <mxCell id="j8alAkKeFbqd9Mwpdzcv-74" value="dueDate timestamp with time zone" style="shape=partialRectangle;connectable=0;fillColor=none;top=0;left=0;bottom=0;right=0;align=left;spacingLeft=6;overflow=hidden;" vertex="1" parent="j8alAkKeFbqd9Mwpdzcv-72">
          <mxGeometry x="30" width="215" height="30" as="geometry">
            <mxRectangle width="215" height="30" as="alternateBounds" />
          </mxGeometry>
        </mxCell>
        <mxCell id="j8alAkKeFbqd9Mwpdzcv-76" value="" style="shape=tableRow;horizontal=0;startSize=0;swimlaneHead=0;swimlaneBody=0;fillColor=none;collapsible=0;dropTarget=0;points=[[0,0.5],[1,0.5]];portConstraint=eastwest;top=0;left=0;right=0;bottom=0;" vertex="1" parent="j8alAkKeFbqd9Mwpdzcv-58">
          <mxGeometry y="180" width="245" height="30" as="geometry" />
        </mxCell>
        <mxCell id="j8alAkKeFbqd9Mwpdzcv-77" value="" style="shape=partialRectangle;connectable=0;fillColor=none;top=0;left=0;bottom=0;right=0;editable=1;overflow=hidden;" vertex="1" parent="j8alAkKeFbqd9Mwpdzcv-76">
          <mxGeometry width="30" height="30" as="geometry">
            <mxRectangle width="30" height="30" as="alternateBounds" />
          </mxGeometry>
        </mxCell>
        <mxCell id="j8alAkKeFbqd9Mwpdzcv-78" value="isChecked boolean" style="shape=partialRectangle;connectable=0;fillColor=none;top=0;left=0;bottom=0;right=0;align=left;spacingLeft=6;overflow=hidden;" vertex="1" parent="j8alAkKeFbqd9Mwpdzcv-76">
          <mxGeometry x="30" width="215" height="30" as="geometry">
            <mxRectangle width="215" height="30" as="alternateBounds" />
          </mxGeometry>
        </mxCell>
        <mxCell id="j8alAkKeFbqd9Mwpdzcv-85" value="" style="shape=tableRow;horizontal=0;startSize=0;swimlaneHead=0;swimlaneBody=0;fillColor=none;collapsible=0;dropTarget=0;points=[[0,0.5],[1,0.5]];portConstraint=eastwest;top=0;left=0;right=0;bottom=0;" vertex="1" parent="j8alAkKeFbqd9Mwpdzcv-58">
          <mxGeometry y="210" width="245" height="30" as="geometry" />
        </mxCell>
        <mxCell id="j8alAkKeFbqd9Mwpdzcv-86" value="" style="shape=partialRectangle;connectable=0;fillColor=none;top=0;left=0;bottom=0;right=0;editable=1;overflow=hidden;" vertex="1" parent="j8alAkKeFbqd9Mwpdzcv-85">
          <mxGeometry width="30" height="30" as="geometry">
            <mxRectangle width="30" height="30" as="alternateBounds" />
          </mxGeometry>
        </mxCell>
        <mxCell id="j8alAkKeFbqd9Mwpdzcv-87" value="priority integer" style="shape=partialRectangle;connectable=0;fillColor=none;top=0;left=0;bottom=0;right=0;align=left;spacingLeft=6;overflow=hidden;" vertex="1" parent="j8alAkKeFbqd9Mwpdzcv-85">
          <mxGeometry x="30" width="215" height="30" as="geometry">
            <mxRectangle width="215" height="30" as="alternateBounds" />
          </mxGeometry>
        </mxCell>
        <mxCell id="j8alAkKeFbqd9Mwpdzcv-81" value="" style="edgeStyle=entityRelationEdgeStyle;fontSize=12;html=1;endArrow=ERzeroToMany;startArrow=ERmandOne;rounded=0;entryX=0;entryY=0.5;entryDx=0;entryDy=0;exitX=1;exitY=0.5;exitDx=0;exitDy=0;" edge="1" parent="1" source="j8alAkKeFbqd9Mwpdzcv-45" target="j8alAkKeFbqd9Mwpdzcv-62">
          <mxGeometry width="100" height="100" relative="1" as="geometry">
            <mxPoint x="370" y="259" as="sourcePoint" />
            <mxPoint x="470" y="159" as="targetPoint" />
          </mxGeometry>
        </mxCell>
        <mxCell id="j8alAkKeFbqd9Mwpdzcv-89" style="edgeStyle=orthogonalEdgeStyle;rounded=0;orthogonalLoop=1;jettySize=auto;html=1;entryX=0;entryY=0.5;entryDx=0;entryDy=0;" edge="1" parent="1" source="j8alAkKeFbqd9Mwpdzcv-82" target="j8alAkKeFbqd9Mwpdzcv-85">
          <mxGeometry relative="1" as="geometry" />
        </mxCell>
        <mxCell id="j8alAkKeFbqd9Mwpdzcv-82" value="0 &amp;lt;= integer &amp;lt;= 2" style="shape=note;size=20;whiteSpace=wrap;html=1;" vertex="1" parent="1">
          <mxGeometry x="440" y="269" width="100" height="60" as="geometry" />
        </mxCell>
        <mxCell id="j8alAkKeFbqd9Mwpdzcv-95" style="edgeStyle=orthogonalEdgeStyle;rounded=0;orthogonalLoop=1;jettySize=auto;html=1;entryX=1;entryY=0.5;entryDx=0;entryDy=0;" edge="1" parent="1" source="j8alAkKeFbqd9Mwpdzcv-94" target="j8alAkKeFbqd9Mwpdzcv-91">
          <mxGeometry relative="1" as="geometry" />
        </mxCell>
        <mxCell id="j8alAkKeFbqd9Mwpdzcv-94" value="integer &amp;gt;= 0" style="shape=note;size=20;whiteSpace=wrap;html=1;" vertex="1" parent="1">
          <mxGeometry x="360" y="244" width="75" height="60" as="geometry" />
        </mxCell>
      </root>
    </mxGraphModel>
  </diagram>
</mxfile>
